<svg xmlns="http://www.w3.org/2000/svg" viewBox="0 0 91.23 91.23"><defs><style>.cls-1{fill:#fff;}.cls-2{fill:#231f20;}.cls-3{fill:none;stroke:#231f20;stroke-miterlimit:10;stroke-width:0.91px;}</style></defs><title>D2Design-logo</title><g id="Layer_2" data-name="Layer 2"><g id="Layer_1-2" data-name="Layer 1"><rect class="cls-1" width="91.23" height="91.23"/><path class="cls-2" d="M28,70.68V20.8h8.51C44.39,20.8,48,25.39,48,34.27V57.21c0,8.88-3.63,13.47-11.54,13.47Zm2.29-47.58V68.39h6.22c6.44,0,9.18-3.48,9.18-11.18V34.27c0-7.7-2.74-11.17-9.18-11.17Z"/><path class="cls-2" d="M54,70.68a.49.49,0,0,1-.57-.57,15.71,15.71,0,0,1,.81-5.34,11.59,11.59,0,0,1,3.22-4.67,10,10,0,0,0,3.68-7.58c0-2.87-1.2-4.6-3.29-4.6s-3.33,1.49-3.33,4.74a.55.55,0,0,1-.53.57.49.49,0,0,1-.57-.57c0-3.79,1.49-5.84,4.43-5.84s4.42,2.41,4.42,5.7a11,11,0,0,1-4.07,8.43c-2.44,2.23-3.54,4.81-3.65,8.64h7.15a.55.55,0,1,1,0,1.1Z"/><rect class="cls-3" x="8.67" y="8.67" width="73.9" height="73.9"/></g></g></svg>